<svg width="70" height="70" viewBox="0 0 70 70" xmlns="http://www.w3.org/2000/svg"><title>icon2</title><g fill="#0548B8" fill-rule="evenodd"><rect opacity=".1" width="70" height="70" rx="35"/><path d="M40.513 24.37v5.74l1.454-.587v-6.037c0-.303-.18-.569-.456-.678l-11.748-4.754a.813.813 0 0 0-.246-.054h-.066a.693.693 0 0 0-.247.054l-11.747 4.754a.736.736 0 0 0-.457.678v28.775c0 .249.12.473.324.606l8.28.12h3.889a.731.731 0 0 0 .72-.732V20.652c0-.187.091-.363.247-.466a.567.567 0 0 1 .529-.055l9.17 3.712a.565.565 0 0 1 .354.527z" fill-rule="nonzero"/><path d="M52.676 32.272l-7.05-2.846c-.053-.018-.107-.036-.167-.036h-.048a.56.56 0 0 0-.175.036l-7.048 2.846a.52.52 0 0 0-.325.479v19.722c0 .29.235.52.517.52h7.055a.521.521 0 0 0 .51-.52v-20.97c0-.187.09-.363.247-.466a.548.548 0 0 1 .529-.054l4.89 1.98c.217.085.355.29.355.527v18.99c0 .29.235.52.517.52a.519.519 0 0 0 .517-.52V32.75c0-.211-.126-.399-.324-.478z" opacity=".8"/></g></svg>