<svg width="70" height="70" viewBox="0 0 70 70" xmlns="http://www.w3.org/2000/svg"><title>icon1</title><g fill="#0548B8" fill-rule="evenodd"><rect opacity=".1" width="70" height="70" rx="35"/><path d="M22.894 43.501c-.046-.713-.026-1.744.304-2.722a4.283 4.283 0 0 1 .933-1.593 3.794 3.794 0 0 1 1.854-1.073c.9-.229 1.751-.502 2.476-.759-.152-.045-.235-.064-.25-.071-.032-.018-1.864-.5-2.704-.956a5.28 5.28 0 0 1-.322-.22v-.911s2.466.076 3.636-1.12c0 0-1.703-.482-1.397-3.582.306-3.1-.381-5.821-2.872-5.591 0 0-1.08-1.3-3.23-.483-.738.281-2.718.99-2.617 5.285.1 4.295-1.527 4.32-1.527 4.32s.84 1.221 3.687 1.196v.873s-.124.094-.321.22c-.84.458-2.672.939-2.705.957-.038.02-.595.123-1.688.638C15.057 38.423 15 39.54 15 39.54v1.81c1.66 1.903 6.78 2.25 7.894 2.304v-.154z" fill-rule="nonzero" opacity=".8"/><path d="M45.854 43.465l.009-.002s.023 1.6-.235 2.25c0 0-3.942 2.56-10.544 2.56l.004-.15-.013.15c-6.602 0-10.544-2.56-10.544-2.56-.258-.65-.235-2.25-.235-2.25-.081-1.152.016-3.479 2.035-3.992 2.707-.688 4.953-1.736 4.953-1.736.444-.611.523-1.89.523-1.89-.847-.912-1.223-2.052-1.38-3.016a.31.31 0 0 1-.192.067c-.255-.006-.595-.378-.963-1.788-.463-1.776-.029-2.126.391-2.123.097.001.113 0 .197.025v-.04s-1.244-4.149 1.75-5.973c0 0-.526-.427-.486-1.04 0 0 1.373.156 2.688.158.598.002 1.184-.029 1.624-.12.175-.035.353-.05.53-.045 1.235.03 2.418.993 2.627 1.92h.05c.391-.001 2.844.186 1.667 5.117l-.002.019a.912.912 0 0 1 .176-.02c.421-.006.86.341.395 2.122-.37 1.422-.714 1.788-.969 1.788a.34.34 0 0 1-.223-.098c-.155.972-.53 2.128-1.389 3.05l.046-.003s.07 1.132.448 1.775c.016.008 2.33 1.166 5.028 1.852 2.019.512 2.115 2.841 2.034 3.993z"/><path d="M53.849 37.92c-1.094-.514-1.65-.617-1.689-.638-.033-.017-1.864-.499-2.704-.955-.198-.127-.322-.221-.322-.221v-.91s2.466.076 3.636-1.12c0 0-1.703-.482-1.397-3.582.306-3.1-.381-5.821-2.873-5.591 0 0-1.08-1.3-3.23-.483-.737.281-2.718.99-2.616 5.285.1 4.295-1.527 4.32-1.527 4.32s.839 1.221 3.687 1.196v.873s-.124.094-.321.22c-.84.458-2.672.939-2.705.957-.01.005-.059.017-.143.04.74.278 1.61.57 2.52.8a3.785 3.785 0 0 1 1.855 1.075c.408.432.722.968.933 1.594.312.926.346 1.9.31 2.607l.002.055.001.215c1.081-.052 6.073-.39 7.734-2.294v-1.81s-.058-1.118-1.151-1.633z" opacity=".8"/></g></svg>