<svg width="70" height="70" viewBox="0 0 70 70" xmlns="http://www.w3.org/2000/svg"><title>icon3</title><g fill="#0548B8" fill-rule="evenodd"><rect opacity=".1" width="70" height="70" rx="35"/><g fill-rule="nonzero"><path d="M39.32 36.62l9.72 9.72c2.16-2.7 3.6-5.94 3.96-9.72H39.32zM33.2 34.1V17c-9 .9-16.2 8.46-16.2 17.82 0 4.32 1.44 8.28 4.14 11.34L33.2 34.1z"/><path d="M36.8 33.02H53c-.9-8.46-7.56-15.3-16.02-16.02v16.02h-.18z" opacity=".8"/><path d="M35 37.52L23.66 48.86c3.06 2.52 7.02 3.96 11.34 3.96s8.28-1.44 11.34-3.96L35 37.52z" opacity=".9"/></g></g></svg>